<svg preserveAspectRatio="none" width="100%" height="100%" overflow="visible" style="display: block;" viewBox="0 0 17.5 3.5" fill="none" xmlns="http://www.w3.org/2000/svg">
<path id="&#229;&#189;&#162;&#231;&#138;&#182;&#231;&#187;&#147;&#229;&#144;&#136;" d="M1.75 0C2.7165 0 3.5 0.783502 3.5 1.75C3.5 2.7165 2.7165 3.5 1.75 3.5C0.783502 3.5 0 2.7165 0 1.75C0 0.783502 0.783502 0 1.75 0ZM8.75 0C9.7165 0 10.5 0.783502 10.5 1.75C10.5 2.7165 9.7165 3.5 8.75 3.5C7.7835 3.5 7 2.7165 7 1.75C7 0.783502 7.7835 0 8.75 0ZM15.75 0C16.7165 0 17.5 0.783502 17.5 1.75C17.5 2.7165 16.7165 3.5 15.75 3.5C14.7835 3.5 14 2.7165 14 1.75C14 0.783502 14.7835 0 15.75 0Z" fill="var(--fill-0, #111111)"/>
</svg>
