<svg preserveAspectRatio="none" width="100%" height="100%" overflow="visible" style="display: block;" viewBox="0 0 20 20" fill="none" xmlns="http://www.w3.org/2000/svg">
<g id="Icon">
<path id="Vector" d="M10.8335 2.5H9.16683C8.70659 2.5 8.3335 2.8731 8.3335 3.33333V16.6667C8.3335 17.1269 8.70659 17.5 9.16683 17.5H10.8335C11.2937 17.5 11.6668 17.1269 11.6668 16.6667V3.33333C11.6668 2.8731 11.2937 2.5 10.8335 2.5Z" fill="var(--fill-0, #E6EEFF)"/>
<path id="Vector_2" d="M16.6667 8.33333H3.33333C2.8731 8.33333 2.5 8.70642 2.5 9.16666V10.8333C2.5 11.2936 2.8731 11.6667 3.33333 11.6667H16.6667C17.1269 11.6667 17.5 11.2936 17.5 10.8333V9.16666C17.5 8.70642 17.1269 8.33333 16.6667 8.33333Z" fill="var(--fill-0, #E6EEFF)"/>
</g>
</svg>
