<svg preserveAspectRatio="none" width="100%" height="100%" overflow="visible" style="display: block;" viewBox="0 0 18.8802 23.4659" fill="none" xmlns="http://www.w3.org/2000/svg">
<g id="&#231;&#188;&#150;&#231;&#187;&#132; 28&#229;&#164;&#135;&#228;&#187;&#189;">
<path id="&#231;&#159;&#169;&#229;&#189;&#162;&#229;&#164;&#135;&#228;&#187;&#189; 2" d="M3.20075 2.75C3.20075 1.64543 4.09618 0.75 5.20075 0.75H13.6795C14.784 0.75 15.6795 1.64543 15.6795 2.75V4.54567H3.20075V2.75Z" stroke="var(--stroke-0, #444444)" stroke-width="1.5" stroke-linecap="round" stroke-linejoin="round"/>
<path id="&#232;&#183;&#175;&#229;&#190;&#132;" d="M12.7409 22.7159H4.75C2.54086 22.7159 0.75 20.925 0.75 18.7159V8.86518C0.75 7.90264 1.09708 6.97239 1.72756 6.24509L2.75217 5.06314C3.03708 4.73448 3.45062 4.54567 3.88559 4.54567H14.9946C15.4296 4.54567 15.8431 4.73448 16.128 5.06314L17.1526 6.24509C17.7831 6.97239 18.1302 7.90264 18.1302 8.86518V10.1449" stroke="var(--stroke-0, #444444)" stroke-width="1.5" stroke-linecap="round" stroke-linejoin="round"/>
<path id="&#232;&#183;&#175;&#229;&#190;&#132; 8&#229;&#164;&#135;&#228;&#187;&#189;" d="M5.64047 11.2004V16.0612" stroke="var(--stroke-0, #444444)" stroke-width="1.5" stroke-linecap="round" stroke-linejoin="round"/>
</g>
</svg>
