<svg preserveAspectRatio="none" width="100%" height="100%" overflow="visible" style="display: block;" viewBox="0 0 21.4969 23.1398" fill="none" xmlns="http://www.w3.org/2000/svg">
<g id="&#231;&#188;&#150;&#231;&#187;&#132; 2">
<g id="Vector">
<path d="M9.06957 6.25125C9.06957 3.48753 7.2468 1.50348 5.28539 1.5032C3.32382 1.5032 1.50023 3.48734 1.50023 6.25125C1.50024 9.01515 3.32382 10.9993 5.28539 10.9993C7.2468 10.999 9.06957 9.01496 9.06957 6.25125ZM10.5696 6.25125C10.5696 9.56015 8.33255 12.499 5.28539 12.4993C2.23802 12.4993 0.000237304 9.5603 0.00023365 6.25125C0.00023365 2.94219 2.23802 0.00319928 5.28539 0.00319928C8.33255 0.00346385 10.5696 2.94234 10.5696 6.25125Z" fill="#444444"/>
<path d="M7.97154 20.5303C8.07034 21.978 6.83329 23.0624 5.44029 23.1358C5.38859 23.1385 5.3368 23.1397 5.28502 23.1397C3.89269 23.1397 2.59361 22.1282 2.59361 20.6836C2.59361 20.6326 2.59502 20.5812 2.59849 20.5303L3.22545 11.3428L4.72252 11.4444L4.09556 20.6329C4.09441 20.6498 4.09361 20.6667 4.09361 20.6836C4.09361 21.1234 4.533 21.6397 5.28502 21.6397C5.3106 21.6397 5.33664 21.6391 5.36216 21.6377C6.10931 21.5982 6.50398 21.066 6.47447 20.6329L5.84752 11.4444L7.34361 11.3428L7.97154 20.5303Z" fill="#444444"/>
<path d="M18.9734 20.5303C19.0722 21.978 17.8351 23.0624 16.4421 23.1358C16.3904 23.1385 16.3387 23.1397 16.2869 23.1397C14.8945 23.1397 13.5955 22.1282 13.5955 20.6836C13.5955 20.6326 13.5969 20.5812 13.6003 20.5303L14.2273 11.3428L15.7244 11.4444L15.0974 20.6329C15.0963 20.6498 15.0955 20.6667 15.0955 20.6836C15.0955 21.1234 15.5349 21.6397 16.2869 21.6397C16.3124 21.6397 16.3385 21.6391 16.364 21.6377C17.1112 21.5982 17.5058 21.066 17.4763 20.6329L16.8494 11.4444L18.3455 11.3428L18.9734 20.5303Z" fill="#444444"/>
<path d="M20.1794 0.00241315C20.5921 -0.0303244 20.953 0.278124 20.986 0.69089L21.4801 6.87448C21.7092 9.74256 19.5698 12.2537 16.7018 12.4829C16.5639 12.4939 16.4252 12.4995 16.2868 12.4995C13.4095 12.4995 11.0769 10.1668 11.0768 7.28952C11.0768 7.15113 11.0824 7.01243 11.0934 6.87448L11.5876 0.69089C11.6205 0.278077 11.9814 -0.0304053 12.3942 0.00241315C12.8071 0.0353778 13.1156 0.397193 13.0827 0.81003L12.5885 6.99362C12.5807 7.09186 12.5768 7.19098 12.5768 7.28952C12.5769 9.33838 14.2379 10.9995 16.2868 10.9995C16.3852 10.9995 16.4836 10.9956 16.5817 10.9878C18.6241 10.8247 20.1481 9.03604 19.985 6.99362L19.4909 0.81003C19.458 0.397188 19.7665 0.035378 20.1794 0.00241315Z" fill="#444444"/>
<path d="M14.3602 4.87253V0.75046C14.3602 0.336293 14.696 0.000535751 15.1102 0.000460029C15.5244 0.000460029 15.8602 0.336246 15.8602 0.75046V4.87253C15.8602 5.28674 15.5244 5.62253 15.1102 5.62253C14.696 5.62245 14.3602 5.2867 14.3602 4.87253Z" fill="var(--fill-0, #296FFF)"/>
<path d="M16.8338 4.87253V0.75046C16.8338 0.336293 17.1696 0.000535751 17.5838 0.000460029C17.998 0.000460029 18.3338 0.336246 18.3338 0.75046V4.87253C18.3338 5.28674 17.998 5.62253 17.5838 5.62253C17.1696 5.62245 16.8338 5.2867 16.8338 4.87253Z" fill="var(--fill-0, #296FFF)"/>
</g>
</g>
</svg>
