<svg preserveAspectRatio="none" width="100%" height="100%" overflow="visible" style="display: block;" viewBox="0 0 20 16.3079" fill="none" xmlns="http://www.w3.org/2000/svg">
<path id="&#232;&#183;&#175;&#229;&#190;&#132; (Stroke)" d="M9.99756 0C13.5071 0 16.1967 2.71139 16.4559 6.39814C18.2593 6.88398 20 8.52181 20 11.2964C20 13.5458 18.5938 15.9751 15.5216 16.2688L15.5143 16.2981L14.161 16.3079L14.1618 16.2981H5.02848C1.57079 16.2552 2.449e-06 13.6752 0 11.2964C0 8.49532 1.77326 6.98858 3.6263 6.4372C3.5725 4.91409 4.09767 3.44648 5.13753 2.24773C6.37709 0.819239 8.1485 2.01894e-05 9.99756 0ZM9.99756 1.25001C8.5203 1.25003 7.08994 1.90446 6.08154 3.06642C5.24189 4.03435 4.8333 5.19588 4.87549 6.39244C4.89559 6.96155 4.52857 7.47276 3.98275 7.63513C2.52987 8.06742 1.25 9.173 1.25 11.2964C1.25 12.2254 1.55927 13.1618 2.16064 13.8526C2.73909 14.517 3.65176 15.0308 5.04395 15.0481H14.1618C14.211 15.0481 14.26 15.0505 14.3083 15.0562L15.2482 15.0497C15.2988 15.0384 15.3503 15.0295 15.4028 15.0245C17.6911 14.8057 18.75 13.0556 18.75 11.2964C18.75 9.14081 17.4421 7.95832 16.1304 7.60502C15.6161 7.46641 15.2457 7.01734 15.2083 6.48603C14.9898 3.37758 12.7769 1.25001 9.99756 1.25001Z" fill="var(--fill-0, #444444)"/>
</svg>
