<svg preserveAspectRatio="none" width="100%" height="100%" overflow="visible" style="display: block;" viewBox="0 0 23.1758 21.5" fill="none" xmlns="http://www.w3.org/2000/svg">
<g id="&#231;&#188;&#150;&#231;&#187;&#132;">
<path id="&#232;&#183;&#175;&#229;&#190;&#132; (Stroke)" d="M20.3643 9.13184V4.55957C20.3643 2.86984 18.9945 1.5 17.3048 1.5H4.55965C2.86992 1.5 1.50007 2.86984 1.50007 4.55957V16.9404C1.50007 18.6302 2.86992 20 4.55965 20H13.0186C13.4327 20.0002 13.7686 20.3359 13.7686 20.75C13.7686 21.1641 13.4327 21.4998 13.0186 21.5H4.55965C2.04149 21.5 7.47442e-05 19.4586 7.47442e-05 16.9404V4.55957C7.47442e-05 2.04141 2.04149 0 4.55965 0H17.3048C19.8229 0 21.8643 2.04141 21.8643 4.55957V9.13184C21.8641 9.54584 21.5284 9.88184 21.1143 9.88184C20.7004 9.88171 20.3646 9.54576 20.3643 9.13184Z" fill="var(--fill-0, #444444)"/>
<path id="&#231;&#159;&#169;&#229;&#189;&#162;&#229;&#164;&#135;&#228;&#187;&#189; 10" fill-rule="evenodd" clip-rule="evenodd" d="M18.4138 11.1198C21.0437 11.1198 23.1757 13.2518 23.1757 15.8817C23.1757 18.5116 21.0437 20.6436 18.4138 20.6436C15.7839 20.6436 13.6519 18.5116 13.6519 15.8817C13.6519 13.2518 15.7839 11.1198 18.4138 11.1198Z" fill="var(--fill-0, white)"/>
<path id="&#231;&#159;&#169;&#229;&#189;&#162;&#229;&#164;&#135;&#228;&#187;&#189; 10 (Stroke)" d="M18.414 11.1198C15.7841 11.1198 13.6524 13.2517 13.6523 15.8815C13.6523 18.5114 15.7841 20.6432 18.414 20.6432C21.0438 20.6431 23.1757 18.5114 23.1757 15.8815C23.1756 13.2517 21.0438 11.1199 18.414 11.1198ZM18.414 12.6198C20.2153 12.6199 21.6756 14.0801 21.6757 15.8815C21.6757 17.6829 20.2154 19.1431 18.414 19.1432C16.6125 19.1432 15.1523 17.683 15.1523 15.8815C15.1524 14.0801 16.6125 12.6198 18.414 12.6198Z" fill="var(--fill-0, #296FFF)"/>
<path id="&#232;&#183;&#175;&#229;&#190;&#132; 17 (Stroke)" d="M19.7373 14.2329C20.0207 13.9308 20.4957 13.9153 20.7978 14.1987C21.0997 14.482 21.115 14.9562 20.832 15.2583L18.7002 17.5308C18.5599 17.6803 18.3641 17.7663 18.1591 17.7681C17.9544 17.7697 17.7579 17.6873 17.6152 17.5405L16.373 16.2612C16.0846 15.9641 16.0917 15.4892 16.3886 15.2007C16.6858 14.9122 17.1607 14.9191 17.4492 15.2163L18.1435 15.9311L19.7373 14.2329Z" fill="var(--fill-0, #296FFF)"/>
<path id="&#232;&#183;&#175;&#229;&#190;&#132; (Stroke)_2" d="M12.8199 7.60273C12.8197 6.68993 12.0719 5.93892 11.1353 5.93867C10.1985 5.93867 9.44989 6.68978 9.44974 7.60273C9.44974 8.22944 9.8003 8.7788 10.3257 9.06172C10.5988 9.20871 10.7533 9.50895 10.7144 9.8166C10.6753 10.1241 10.4509 10.3761 10.1499 10.4504C8.38458 10.8866 7.08454 12.4671 7.0845 14.34C7.0845 14.4156 7.11176 14.5249 7.2847 14.6779C7.46911 14.841 7.77632 15.0099 8.21341 15.1564C9.08317 15.448 10.2817 15.5904 11.481 15.5568C11.895 15.5453 12.2399 15.8714 12.2515 16.2854C12.263 16.6993 11.9369 17.0442 11.523 17.0559C10.2064 17.0927 8.82072 16.9421 7.73587 16.5783C7.19591 16.3972 6.68273 16.1478 6.29153 15.802C5.88891 15.4459 5.5845 14.9551 5.5845 14.34C5.58453 12.2177 6.79208 10.3806 8.55716 9.46016C8.17593 8.93942 7.94974 8.29795 7.94974 7.60273C7.94989 5.84914 9.3823 4.43867 11.1353 4.43867C12.8881 4.43892 14.3197 5.84929 14.3199 7.60273C14.3199 8.29549 14.0948 8.93443 13.7163 9.4543C13.82 9.51398 13.9294 9.57786 14.0435 9.64766C14.3966 9.86388 14.5076 10.3257 14.2915 10.6789C14.0753 11.032 13.6135 11.143 13.2603 10.927C12.7043 10.5869 12.3989 10.4469 12.188 10.384C11.9038 10.2993 11.6955 10.0551 11.6577 9.76094C11.6201 9.46666 11.7595 9.17729 12.0132 9.02363C12.5005 8.72878 12.8199 8.2008 12.8199 7.60273Z" fill="var(--fill-0, #444444)"/>
</g>
</svg>
