<svg preserveAspectRatio="none" width="100%" height="100%" overflow="visible" style="display: block;" viewBox="0 0 22 21.0839" fill="none" xmlns="http://www.w3.org/2000/svg">
<path id="&#229;&#189;&#162;&#231;&#138;&#182;&#231;&#187;&#147;&#229;&#144;&#136;" d="M8.6748 0.745066C10.0656 -0.248355 11.9344 -0.248355 13.3252 0.745066L20.7441 6.04389C21.5324 6.60703 22 7.51653 22 8.4853V18.0839C22 19.7408 20.6569 21.0839 19 21.0839H3C1.34315 21.0839 0 19.7408 0 18.0839V8.4853C9.49811e-06 7.51653 0.467582 6.60703 1.25586 6.04389L8.6748 0.745066ZM7.25 14.0839C6.55978 14.0839 6.00022 14.6438 6 15.3339C6 16.0243 6.55964 16.5839 7.25 16.5839H14.75C15.4404 16.5839 16 16.0243 16 15.3339C15.9998 14.6438 15.4402 14.0839 14.75 14.0839H7.25Z" fill="url(#paint0_linear_0_98)"/>
<defs>
<linearGradient id="paint0_linear_0_98" x1="0" y1="17.9437" x2="22" y2="17.9437" gradientUnits="userSpaceOnUse">
<stop stop-color="#296FFF"/>
<stop offset="1" stop-color="#30AFFF"/>
</linearGradient>
</defs>
</svg>
