<svg preserveAspectRatio="none" width="100%" height="100%" overflow="visible" style="display: block;" viewBox="0 0 5.59814 5.59814" fill="none" xmlns="http://www.w3.org/2000/svg">
<path id="&#229;&#189;&#162;&#231;&#138;&#182;&#231;&#187;&#147;&#229;&#144;&#136;&#229;&#164;&#135;&#228;&#187;&#189; 3" d="M2.79867 0C3.14384 0 3.42367 0.279822 3.42367 0.625V2.17367H4.97314C5.31812 2.17384 5.59805 2.45367 5.59814 2.79867C5.59814 3.14374 5.31818 3.42349 4.97314 3.42367H3.42367V4.97314C3.42349 5.31818 3.14374 5.59814 2.79867 5.59814C2.45371 5.59801 2.17384 5.31809 2.17367 4.97314V3.42367H0.625C0.279823 3.42367 9.66388e-07 3.14384 0 2.79867C9.55852e-05 2.45357 0.279881 2.17367 0.625 2.17367H2.17367V0.625C2.17367 0.279905 2.4536 0.000133792 2.79867 0Z" fill="var(--fill-0, #296FFF)"/>
</svg>
