<svg preserveAspectRatio="none" width="100%" height="100%" overflow="visible" style="display: block;" viewBox="0 0 19 22" fill="none" xmlns="http://www.w3.org/2000/svg">
<path id="&#229;&#189;&#162;&#231;&#138;&#182;&#231;&#187;&#147;&#229;&#144;&#136;" d="M9.5 0C14.7467 0 19 4.25329 19 9.5C19 13.6984 16.2756 17.2577 12.499 18.5137C14.1779 19.1378 15.3429 20.2779 15.4854 21.6396C15.5059 21.8365 15.3376 21.9999 15.1396 22H3.86035C3.66238 21.9999 3.49432 21.8366 3.51465 21.6396C3.65545 20.2772 4.81914 19.1365 6.49805 18.5127C2.72299 17.2559 0 13.6973 0 9.5C0 4.25329 4.25329 0 9.5 0ZM6.5 6C5.94772 6 5.5 6.44772 5.5 7V9C5.5 9.55228 5.94772 10 6.5 10C7.05228 10 7.5 9.55228 7.5 9V7C7.5 6.44772 7.05228 6 6.5 6ZM12.5 6C11.9477 6 11.5 6.44772 11.5 7V9C11.5 9.55228 11.9477 10 12.5 10C13.0523 10 13.5 9.55228 13.5 9V7C13.5 6.44772 13.0523 6 12.5 6Z" fill="url(#paint0_linear_0_342)"/>
<defs>
<linearGradient id="paint0_linear_0_342" x1="0" y1="18.7234" x2="19" y2="18.7234" gradientUnits="userSpaceOnUse">
<stop stop-color="#296FFF"/>
<stop offset="1" stop-color="#30AFFF"/>
</linearGradient>
</defs>
</svg>
