<svg preserveAspectRatio="none" width="100%" height="100%" overflow="visible" style="display: block;" viewBox="0 0 116.351 121.393" fill="none" xmlns="http://www.w3.org/2000/svg">
<g id="&#231;&#188;&#150;&#231;&#187;&#132; 4">
<path id="&#231;&#159;&#169;&#229;&#189;&#162;" opacity="0.7" fill-rule="evenodd" clip-rule="evenodd" d="M10.7949 109.985L103.822 87.7106L115.693 106.996L103.822 115.237C103.822 115.237 88.8388 117.225 64.7264 117.945C40.6141 118.664 14.9049 117.891 14.9049 117.891L10.7949 109.985Z" fill="url(#paint0_linear_0_625)"/>
<path id="Fill 1" fill-rule="evenodd" clip-rule="evenodd" d="M72.9931 37.2406H60.4303H47.867C47.867 37.2406 8.27634 112.517 60.4303 112.517C112.584 112.517 72.9931 37.2406 72.9931 37.2406" fill="var(--fill-0, white)"/>
<g id="Fill 3" filter="url(#filter0_ii_0_625)">
<path fill-rule="evenodd" clip-rule="evenodd" d="M64.1223 106.79C64.1223 106.79 62.8935 102.675 48.7342 98.4314C48.7342 98.4314 51.9233 97.503 49.13 89.8698C46.8843 83.7327 35.6005 77.8848 31.8499 86.5221C26.4266 99.0093 27.7243 110.534 36.2739 114.976C45.3817 119.708 69.1178 115.626 69.1178 115.626L64.1223 106.79Z" fill="url(#paint1_linear_0_625)"/>
</g>
<g id="&#231;&#188;&#150;&#231;&#187;&#132;">
<g id="Fill 5" filter="url(#filter1_ii_0_625)">
<path fill-rule="evenodd" clip-rule="evenodd" d="M99.664 112.913C99.664 112.913 110.357 119.798 105.615 108.62C100.978 97.6905 99.0043 102.648 99.0043 102.648C99.0043 102.648 97.5191 101.059 87.6551 101.173C87.6551 101.173 92.7975 96.4397 90.0343 91.2186C87.1129 85.6996 65.6513 84.0286 63.6612 92.8169C60.7839 105.524 62.582 114.353 72.1168 116.469C82.2733 118.722 99.664 112.913 99.664 112.913Z" fill="url(#paint2_linear_0_625)"/>
</g>
</g>
<path id="Fill 7" fill-rule="evenodd" clip-rule="evenodd" d="M79.7248 46.9809C79.7248 46.9809 92.0188 49.9853 96.3154 57.6638C100.612 65.3423 75.2263 62.0435 75.2263 62.0435L77.1826 54.7914L79.7248 46.9809Z" fill="url(#paint3_linear_0_625)"/>
<path id="Fill 9" fill-rule="evenodd" clip-rule="evenodd" d="M45.9443 44.7839C45.9443 44.7839 30.1937 46.8684 26.5313 54.8645C22.8685 62.86 48.5084 58.1108 48.5084 58.1108L45.9734 51.0386L45.9443 44.7839Z" fill="url(#paint4_linear_0_625)"/>
<g id="&#231;&#188;&#150;&#231;&#187;&#132; 3">
<path id="Fill 11" fill-rule="evenodd" clip-rule="evenodd" d="M62.6553 117.943C57.399 118.002 30.7259 116.571 27.5003 115.444C27.416 115.474 25.5945 112.359 25.5945 112.359C25.5945 112.359 37.5895 112.406 34.8084 110.975C23.6039 105.209 15.3026 95.0322 15.3026 84.0636C15.3026 65.353 37.3429 49.1003 62.6553 49.1003C87.9688 49.1003 108.489 65.353 108.489 84.0636C108.489 102.775 87.9672 117.66 62.6553 117.943Z" fill="var(--fill-0, #B1B8C7)"/>
<path id="Fill 11&#229;&#164;&#135;&#228;&#187;&#189;" fill-rule="evenodd" clip-rule="evenodd" d="M105.113 80.7767C105.113 99.4416 84.5909 114.291 59.279 114.573C54.0227 114.631 28.5332 113.655 25.5945 112.163C23.3802 111.039 36.5098 110.229 31.4321 107.622C20.2276 101.87 13.4459 91.7183 13.4459 80.7767C13.4459 62.1124 33.9665 46.9809 59.279 46.9809C84.5924 46.9809 105.113 62.1124 105.113 80.7767" fill="url(#paint5_linear_0_625)"/>
<path id="Fill 13" fill-rule="evenodd" clip-rule="evenodd" d="M51.8154 84.1486C51.8154 88.2949 55.1995 91.656 59.3742 91.656C63.5488 91.656 66.9329 88.2949 66.9329 84.1486C66.9329 80.0024 63.5488 76.6413 59.3742 76.6413C55.1995 76.6413 51.8154 80.0024 51.8154 84.1486" fill="url(#paint6_linear_0_625)"/>
<path id="Fill 15" fill-rule="evenodd" clip-rule="evenodd" d="M27.3274 84.1486C27.3274 88.2949 30.7115 91.656 34.8861 91.656C39.0607 91.656 42.4449 88.2949 42.4449 84.1486C42.4449 80.0024 39.0607 76.6413 34.8861 76.6413C30.7115 76.6413 27.3274 80.0024 27.3274 84.1486" fill="url(#paint7_linear_0_625)"/>
<path id="Fill 17" fill-rule="evenodd" clip-rule="evenodd" d="M76.1139 84.1486C76.1139 88.2949 79.498 91.656 83.6727 91.656C87.8473 91.656 91.2314 88.2949 91.2314 84.1486C91.2314 80.0024 87.8473 76.6413 83.6727 76.6413C79.498 76.6413 76.1139 80.0024 76.1139 84.1486" fill="url(#paint8_linear_0_625)"/>
</g>
<g id="&#231;&#188;&#150;&#231;&#187;&#132; 2">
<path id="Fill 19" fill-rule="evenodd" clip-rule="evenodd" d="M67.5341 10.7612L81.6962 17.6162L83.3796 14.1561L69.2175 7.30112L67.5341 10.7612Z" fill="url(#paint9_linear_0_625)"/>
<path id="Fill 21" fill-rule="evenodd" clip-rule="evenodd" d="M70.4722 29.4835V29.4835C71.3482 30.2405 72.6735 30.145 73.4315 29.2715L88.5408 11.8635C89.2988 10.9896 89.2039 9.66758 88.3278 8.91149C87.4517 8.15446 86.1264 8.24956 85.368 9.12346L70.2592 26.5315C69.5007 27.405 69.5956 28.7269 70.4722 29.4835" fill="url(#paint10_linear_0_625)"/>
<g id="&#231;&#188;&#150;&#231;&#187;&#132;_2">
<mask id="mask0_0_625" style="mask-type:luminance" maskUnits="userSpaceOnUse" x="63" y="0" width="10" height="27">
<path id="Clip 24" fill-rule="evenodd" clip-rule="evenodd" d="M63.882 0H72.4383V26.7977H63.882V0Z" fill="var(--fill-0, white)"/>
</mask>
<g mask="url(#mask0_0_625)">
<path id="Fill 23" fill-rule="evenodd" clip-rule="evenodd" d="M65.5845 26.7596V26.7596C64.4466 26.5415 63.7014 25.4442 63.9201 24.3092L68.2797 1.69789C68.4983 0.56281 69.5983 -0.180506 70.7357 0.0376153C71.8741 0.255736 72.6188 1.35344 72.4002 2.48852L68.0415 25.0993C67.8224 26.2349 66.7224 26.9782 65.5845 26.7596" fill="url(#paint11_linear_0_625)"/>
</g>
</g>
<g id="Fill 25" filter="url(#filter2_ii_0_625)">
<path fill-rule="evenodd" clip-rule="evenodd" d="M73.8459 16.322C73.8459 16.322 92.9542 24.4805 85.0358 46.6564C85.0358 46.6564 85.4314 67.6287 55.9395 54.8996C23.1306 40.7388 43.033 26.3248 43.033 26.3248C55.2033 6.33334 73.8459 16.322 73.8459 16.322Z" fill="url(#paint12_linear_0_625)"/>
</g>
<path id="Fill 27" fill-rule="evenodd" clip-rule="evenodd" d="M52.5622 22.7124C54.6773 22.7323 61.0428 24.1891 68.2967 27.7003C75.5506 31.2116 80.6368 35.2977 81.9611 36.9428C83.4923 38.8444 79.6199 47.4244 76.9878 47.1666C74.3562 46.9082 66.425 43.3625 65.74 41.7221C64.9247 39.768 66.1005 37.8825 65.3962 37.2054C65.0594 36.8822 63.0691 35.9189 62.6066 35.855C61.6376 35.7216 60.8796 37.8101 58.8367 38.3802C57.1215 38.859 49.4212 34.8382 47.5889 32.9357C45.7566 31.0337 50.1175 22.6892 52.5622 22.7124" fill="var(--fill-0, white)"/>
<path id="Fill 29" fill-rule="evenodd" clip-rule="evenodd" d="M72.2557 47.634C71.8463 48.4753 73.3447 50.0442 75.6025 51.1367C77.8603 52.2297 80.0228 52.4336 80.4321 51.5914C80.842 50.7502 79.3431 49.1817 77.0853 48.0887C74.8275 46.9957 72.665 46.7923 72.2557 47.634" fill="var(--fill-0, #FFD7DC)"/>
<path id="Fill 31" fill-rule="evenodd" clip-rule="evenodd" d="M41.9727 32.9756C41.5633 33.8169 43.0618 35.3859 45.3196 36.4784C47.5774 37.5718 49.7398 37.7753 50.1492 36.9331C50.559 36.0918 49.0601 34.5233 46.8023 33.4303C44.5445 32.3374 42.382 32.1339 41.9727 32.9756" fill="var(--fill-0, #FFD7DC)"/>
<path id="Stroke 37" d="M58.7771 31.211C58.2582 32.3206 56.7897 32.7327 55.4962 32.1304C54.2027 31.529 53.5747 30.1412 54.0936 29.0322" stroke="var(--stroke-0, black)" stroke-width="0.940484" stroke-linecap="round" stroke-linejoin="round"/>
<path id="Stroke 39" d="M76.3439 39.3446C75.825 40.4542 74.356 40.8663 73.0625 40.264C71.769 39.6626 71.1415 38.2748 71.6604 37.1658" stroke="var(--stroke-0, black)" stroke-width="0.940484" stroke-linecap="round" stroke-linejoin="round"/>
<g id="&#230;&#164;&#173;&#229;&#156;&#134;&#229;&#189;&#162;">
<path id="&#232;&#146;&#153;&#231;&#137;&#136;" fill-rule="evenodd" clip-rule="evenodd" d="M62.6246 45.0113C61.9102 46.5027 60.5669 47.3477 59.6235 46.8987C58.6805 46.4497 58.4941 44.876 59.2084 43.3847C59.9228 41.8923 61.2661 41.0473 62.2095 41.4968C63.1525 41.9458 63.3384 43.52 62.6246 45.0113" fill="var(--fill-0, #231815)"/>
<mask id="mask1_0_625" style="mask-type:luminance" maskUnits="userSpaceOnUse" x="58" y="41" width="6" height="7">
<path id="&#232;&#146;&#153;&#231;&#137;&#136;_2" fill-rule="evenodd" clip-rule="evenodd" d="M62.6246 45.0113C61.9102 46.5027 60.5669 47.3477 59.6235 46.8987C58.6805 46.4497 58.4941 44.876 59.2084 43.3847C59.9228 41.8923 61.2661 41.0473 62.2095 41.4968C63.1525 41.9458 63.3384 43.52 62.6246 45.0113" fill="var(--fill-0, white)"/>
</mask>
<g mask="url(#mask1_0_625)">
<ellipse id="&#230;&#164;&#173;&#229;&#156;&#134;&#229;&#189;&#162;_2" cx="60.5228" cy="46.2502" rx="3.19922" ry="2.29408" transform="rotate(13 60.5228 46.2502)" fill="var(--fill-0, #B85942)"/>
</g>
</g>
<path id="Fill 43" fill-rule="evenodd" clip-rule="evenodd" d="M61.0133 48.4214C61.4023 47.2762 60.117 46.7827 61.1843 46.459C62.8161 46.0292 64.5485 50.0276 64.5485 51.338C64.5485 52.6493 63.5255 53.7111 62.2638 53.7111C61.0022 53.7111 59.9792 52.6493 59.9792 51.338C59.9792 50.406 60.4748 50.0061 61.0133 48.4214Z" fill="url(#paint13_linear_0_625)"/>
</g>
<g id="Fill 33" filter="url(#filter3_ii_0_625)">
<path fill-rule="evenodd" clip-rule="evenodd" d="M37.0525 53.7111C43.4948 57.9964 57.7776 70.7376 49.1787 76.6494C40.5793 82.5603 25.152 62.8741 25.6544 55.8946C25.7579 54.4525 27.1553 51.5347 29.8768 51.0305C31.752 50.6832 34.4243 51.9628 37.0525 53.7111Z" fill="url(#paint14_linear_0_625)"/>
</g>
<g id="Fill 35" filter="url(#filter4_ii_0_625)">
<path fill-rule="evenodd" clip-rule="evenodd" d="M88.4118 55.5901C80.5432 56.3005 60.0256 58.7378 64.0103 68.4066C67.9954 78.075 93.4413 70.2485 97.2167 64.1712C98.5341 62.0504 97.2302 58.9991 97.2302 58.9991C97.2302 58.9991 96.2809 54.8792 88.4118 55.5901Z" fill="url(#paint15_linear_0_625)"/>
</g>
<g id="&#232;&#183;&#175;&#229;&#190;&#132; 3" filter="url(#filter5_di_0_625)">
<path fill-rule="evenodd" clip-rule="evenodd" d="M14.0724 8.2615C15.9477 8.2615 16.9764 10.3996 15.8759 11.8539L15.7664 11.9881L7.21511 21.7434H14.0724C15.2591 21.7434 16.2312 22.66 16.3172 23.8227L16.3233 23.9904C16.3233 25.175 15.4051 26.1454 14.2404 26.2312L14.0724 26.2374H2.25527C0.38 26.2374 -0.648694 24.0993 0.451849 22.645L0.561302 22.5107L9.11035 12.7555H3.3469C2.16027 12.7555 1.18811 11.8388 1.10218 10.6762L1.09601 10.5085C1.09601 9.32392 2.01423 8.35344 3.17891 8.26766L3.3469 8.2615H14.0724Z" fill="url(#paint16_linear_0_625)"/>
</g>
<g id="&#232;&#183;&#175;&#229;&#190;&#132; 3&#229;&#164;&#135;&#228;&#187;&#189; 2" filter="url(#filter6_di_0_625)">
<path fill-rule="evenodd" clip-rule="evenodd" d="M29.2659 20.0582C30.6663 20.0582 31.4373 21.6479 30.6291 22.7383L30.5364 22.8531L25.1063 29.0461H29.2659C30.1435 29.0461 30.8646 29.7145 30.9464 30.569L30.9541 30.7313C30.9541 31.6073 30.2846 32.3272 29.4285 32.4089L29.2659 32.4166H21.3878C19.9874 32.4166 19.2165 30.8268 20.0247 29.7364L20.1174 29.6216L25.5452 23.4286H22.1156C21.2381 23.4286 20.5169 22.7603 20.4351 21.9057L20.4274 21.7434C20.4274 20.8674 21.0969 20.1475 21.953 20.0659L22.1156 20.0582H29.2659Z" fill="url(#paint17_linear_0_625)"/>
</g>
<path id="&#232;&#183;&#175;&#229;&#190;&#132; 28" opacity="0.814511" fill-rule="evenodd" clip-rule="evenodd" d="M89.3877 55.5077C89.3877 55.5077 94.6252 59.1951 94.9965 66.2209C94.1278 67.377 90.0504 69.1625 90.0504 69.1625C90.0504 69.1625 88.1245 58.7458 82.6677 56.2535C82.2795 56.1329 89.3877 55.5077 89.3877 55.5077Z" fill="url(#paint18_linear_0_625)"/>
<path id="&#232;&#183;&#175;&#229;&#190;&#132; 28&#229;&#164;&#135;&#228;&#187;&#189;" opacity="0.814511" fill-rule="evenodd" clip-rule="evenodd" d="M37.0525 53.7111C37.0525 53.7111 30.2955 54.8928 27.0986 61.1602C27.422 62.5697 30.0464 66.2904 30.0464 66.2904C30.0464 66.2904 34.7951 58.064 41.5366 57.2612C41.9403 57.3089 37.0525 53.7111 37.0525 53.7111Z" fill="url(#paint19_linear_0_625)"/>
</g>
<defs>
<filter id="filter0_ii_0_625" x="25.6018" y="79.1632" width="43.516" height="39.0986" filterUnits="userSpaceOnUse" color-interpolation-filters="sRGB">
<feFlood flood-opacity="0" result="BackgroundImageFix"/>
<feBlend mode="normal" in="SourceGraphic" in2="BackgroundImageFix" result="shape"/>
<feColorMatrix in="SourceAlpha" type="matrix" values="0 0 0 0 0 0 0 0 0 0 0 0 0 0 0 0 0 0 127 0" result="hardAlpha"/>
<feOffset dx="-3" dy="-3"/>
<feGaussianBlur stdDeviation="1.5"/>
<feComposite in2="hardAlpha" operator="arithmetic" k2="-1" k3="1"/>
<feColorMatrix type="matrix" values="0 0 0 0 0 0 0 0 0 0.546564 0 0 0 0 0.374868 0 0 0 0.537423 0"/>
<feBlend mode="normal" in2="shape" result="effect1_innerShadow_0_625"/>
<feColorMatrix in="SourceAlpha" type="matrix" values="0 0 0 0 0 0 0 0 0 0 0 0 0 0 0 0 0 0 127 0" result="hardAlpha"/>
<feOffset dy="1"/>
<feGaussianBlur stdDeviation="1"/>
<feComposite in2="hardAlpha" operator="arithmetic" k2="-1" k3="1"/>
<feColorMatrix type="matrix" values="0 0 0 0 1 0 0 0 0 1 0 0 0 0 1 0 0 0 0.5 0"/>
<feBlend mode="normal" in2="effect1_innerShadow_0_625" result="effect2_innerShadow_0_625"/>
</filter>
<filter id="filter1_ii_0_625" x="60.4111" y="83.6525" width="47.4167" height="34.3356" filterUnits="userSpaceOnUse" color-interpolation-filters="sRGB">
<feFlood flood-opacity="0" result="BackgroundImageFix"/>
<feBlend mode="normal" in="SourceGraphic" in2="BackgroundImageFix" result="shape"/>
<feColorMatrix in="SourceAlpha" type="matrix" values="0 0 0 0 0 0 0 0 0 0 0 0 0 0 0 0 0 0 127 0" result="hardAlpha"/>
<feOffset dx="1" dy="1"/>
<feGaussianBlur stdDeviation="1.5"/>
<feComposite in2="hardAlpha" operator="arithmetic" k2="-1" k3="1"/>
<feColorMatrix type="matrix" values="0 0 0 0 1 0 0 0 0 1 0 0 0 0 1 0 0 0 0.236806 0"/>
<feBlend mode="normal" in2="shape" result="effect1_innerShadow_0_625"/>
<feColorMatrix in="SourceAlpha" type="matrix" values="0 0 0 0 0 0 0 0 0 0 0 0 0 0 0 0 0 0 127 0" result="hardAlpha"/>
<feOffset dx="-2" dy="-5"/>
<feGaussianBlur stdDeviation="1.5"/>
<feComposite in2="hardAlpha" operator="arithmetic" k2="-1" k3="1"/>
<feColorMatrix type="matrix" values="0 0 0 0 0.066581 0 0 0 0 0.37698 0 0 0 0 0.892969 0 0 0 0.636172 0"/>
<feBlend mode="normal" in2="effect1_innerShadow_0_625" result="effect2_innerShadow_0_625"/>
</filter>
<filter id="filter2_ii_0_625" x="35.0525" y="11.8266" width="52.9053" height="48.1734" filterUnits="userSpaceOnUse" color-interpolation-filters="sRGB">
<feFlood flood-opacity="0" result="BackgroundImageFix"/>
<feBlend mode="normal" in="SourceGraphic" in2="BackgroundImageFix" result="shape"/>
<feColorMatrix in="SourceAlpha" type="matrix" values="0 0 0 0 0 0 0 0 0 0 0 0 0 0 0 0 0 0 127 0" result="hardAlpha"/>
<feOffset dx="1" dy="1"/>
<feGaussianBlur stdDeviation="1.5"/>
<feComposite in2="hardAlpha" operator="arithmetic" k2="-1" k3="1"/>
<feColorMatrix type="matrix" values="0 0 0 0 1 0 0 0 0 1 0 0 0 0 1 0 0 0 0.5 0"/>
<feBlend mode="normal" in2="shape" result="effect1_innerShadow_0_625"/>
<feColorMatrix in="SourceAlpha" type="matrix" values="0 0 0 0 0 0 0 0 0 0 0 0 0 0 0 0 0 0 127 0" result="hardAlpha"/>
<feOffset dx="-2" dy="-2"/>
<feGaussianBlur stdDeviation="1.5"/>
<feComposite in2="hardAlpha" operator="arithmetic" k2="-1" k3="1"/>
<feColorMatrix type="matrix" values="0 0 0 0 0 0 0 0 0 0.366692 0 0 0 0 0.815359 0 0 0 0.636172 0"/>
<feBlend mode="normal" in2="effect1_innerShadow_0_625" result="effect2_innerShadow_0_625"/>
</filter>
<filter id="filter3_ii_0_625" x="22.6424" y="47.9734" width="29.2163" height="30.768" filterUnits="userSpaceOnUse" color-interpolation-filters="sRGB">
<feFlood flood-opacity="0" result="BackgroundImageFix"/>
<feBlend mode="normal" in="SourceGraphic" in2="BackgroundImageFix" result="shape"/>
<feColorMatrix in="SourceAlpha" type="matrix" values="0 0 0 0 0 0 0 0 0 0 0 0 0 0 0 0 0 0 127 0" result="hardAlpha"/>
<feOffset dx="-3" dy="-3"/>
<feGaussianBlur stdDeviation="1.5"/>
<feComposite in2="hardAlpha" operator="arithmetic" k2="-1" k3="1"/>
<feColorMatrix type="matrix" values="0 0 0 0 0 0 0 0 0 0.546564 0 0 0 0 0.374868 0 0 0 0.537423 0"/>
<feBlend mode="normal" in2="shape" result="effect1_innerShadow_0_625"/>
<feColorMatrix in="SourceAlpha" type="matrix" values="0 0 0 0 0 0 0 0 0 0 0 0 0 0 0 0 0 0 127 0" result="hardAlpha"/>
<feOffset dy="1"/>
<feGaussianBlur stdDeviation="1"/>
<feComposite in2="hardAlpha" operator="arithmetic" k2="-1" k3="1"/>
<feColorMatrix type="matrix" values="0 0 0 0 1 0 0 0 0 1 0 0 0 0 1 0 0 0 0.5 0"/>
<feBlend mode="normal" in2="effect1_innerShadow_0_625" result="effect2_innerShadow_0_625"/>
</filter>
<filter id="filter4_ii_0_625" x="61.5022" y="53.5077" width="37.3036" height="20.4499" filterUnits="userSpaceOnUse" color-interpolation-filters="sRGB">
<feFlood flood-opacity="0" result="BackgroundImageFix"/>
<feBlend mode="normal" in="SourceGraphic" in2="BackgroundImageFix" result="shape"/>
<feColorMatrix in="SourceAlpha" type="matrix" values="0 0 0 0 0 0 0 0 0 0 0 0 0 0 0 0 0 0 127 0" result="hardAlpha"/>
<feOffset dx="1" dy="1"/>
<feGaussianBlur stdDeviation="1.5"/>
<feComposite in2="hardAlpha" operator="arithmetic" k2="-1" k3="1"/>
<feColorMatrix type="matrix" values="0 0 0 0 1 0 0 0 0 1 0 0 0 0 1 0 0 0 0.5 0"/>
<feBlend mode="normal" in2="shape" result="effect1_innerShadow_0_625"/>
<feColorMatrix in="SourceAlpha" type="matrix" values="0 0 0 0 0 0 0 0 0 0 0 0 0 0 0 0 0 0 127 0" result="hardAlpha"/>
<feOffset dx="-2" dy="-2"/>
<feGaussianBlur stdDeviation="2"/>
<feComposite in2="hardAlpha" operator="arithmetic" k2="-1" k3="1"/>
<feColorMatrix type="matrix" values="0 0 0 0 0 0 0 0 0 0.366692 0 0 0 0 0.815359 0 0 0 0.636172 0"/>
<feBlend mode="normal" in2="effect1_innerShadow_0_625" result="effect2_innerShadow_0_625"/>
</filter>
<filter id="filter5_di_0_625" x="2.80925e-08" y="8.2615" width="17.3277" height="18.9759" filterUnits="userSpaceOnUse" color-interpolation-filters="sRGB">
<feFlood flood-opacity="0" result="BackgroundImageFix"/>
<feColorMatrix in="SourceAlpha" type="matrix" values="0 0 0 0 0 0 0 0 0 0 0 0 0 0 0 0 0 0 127 0" result="hardAlpha"/>
<feOffset dx="1"/>
<feColorMatrix type="matrix" values="0 0 0 0 0.937255 0 0 0 0 0.764706 0 0 0 0 0.321569 0 0 0 1 0"/>
<feBlend mode="normal" in2="BackgroundImageFix" result="effect1_dropShadow_0_625"/>
<feBlend mode="normal" in="SourceGraphic" in2="effect1_dropShadow_0_625" result="shape"/>
<feColorMatrix in="SourceAlpha" type="matrix" values="0 0 0 0 0 0 0 0 0 0 0 0 0 0 0 0 0 0 127 0" result="hardAlpha"/>
<feOffset dx="1" dy="1"/>
<feGaussianBlur stdDeviation="1"/>
<feComposite in2="hardAlpha" operator="arithmetic" k2="-1" k3="1"/>
<feColorMatrix type="matrix" values="0 0 0 0 1 0 0 0 0 1 0 0 0 0 1 0 0 0 0.5 0"/>
<feBlend mode="normal" in2="shape" result="effect2_innerShadow_0_625"/>
</filter>
<filter id="filter6_di_0_625" x="19.6964" y="20.0582" width="12.261" height="13.3584" filterUnits="userSpaceOnUse" color-interpolation-filters="sRGB">
<feFlood flood-opacity="0" result="BackgroundImageFix"/>
<feColorMatrix in="SourceAlpha" type="matrix" values="0 0 0 0 0 0 0 0 0 0 0 0 0 0 0 0 0 0 127 0" result="hardAlpha"/>
<feOffset dx="1"/>
<feColorMatrix type="matrix" values="0 0 0 0 0.937255 0 0 0 0 0.764706 0 0 0 0 0.321569 0 0 0 1 0"/>
<feBlend mode="normal" in2="BackgroundImageFix" result="effect1_dropShadow_0_625"/>
<feBlend mode="normal" in="SourceGraphic" in2="effect1_dropShadow_0_625" result="shape"/>
<feColorMatrix in="SourceAlpha" type="matrix" values="0 0 0 0 0 0 0 0 0 0 0 0 0 0 0 0 0 0 127 0" result="hardAlpha"/>
<feOffset dx="1" dy="1"/>
<feGaussianBlur stdDeviation="1"/>
<feComposite in2="hardAlpha" operator="arithmetic" k2="-1" k3="1"/>
<feColorMatrix type="matrix" values="0 0 0 0 1 0 0 0 0 1 0 0 0 0 1 0 0 0 0.5 0"/>
<feBlend mode="normal" in2="shape" result="effect2_innerShadow_0_625"/>
</filter>
<linearGradient id="paint0_linear_0_625" x1="22.0145" y1="133.043" x2="114.812" y2="124.53" gradientUnits="userSpaceOnUse">
<stop stop-color="#C4CAD8" stop-opacity="0.01"/>
<stop offset="0.251674" stop-color="#C4CAD8" stop-opacity="0.99104"/>
<stop offset="0.470709" stop-color="#5F636D" stop-opacity="0.966014"/>
<stop offset="0.753207" stop-color="#C4CAD8" stop-opacity="0.933738"/>
<stop offset="1" stop-color="#E9EEF7" stop-opacity="0.01"/>
</linearGradient>
<linearGradient id="paint1_linear_0_625" x1="28.9128" y1="88.1473" x2="39.5654" y2="123.656" gradientUnits="userSpaceOnUse">
<stop stop-color="#09DF98"/>
<stop offset="1" stop-color="#00A56A"/>
</linearGradient>
<linearGradient id="paint2_linear_0_625" x1="81.4244" y1="98.4241" x2="80.1095" y2="116.142" gradientUnits="userSpaceOnUse">
<stop stop-color="#5796FF"/>
<stop offset="1" stop-color="#1566ED"/>
</linearGradient>
<linearGradient id="paint3_linear_0_625" x1="99.6709" y1="57.797" x2="94.1977" y2="48.4059" gradientUnits="userSpaceOnUse">
<stop stop-color="#59ABF5"/>
<stop offset="1" stop-color="#2D73E7"/>
</linearGradient>
<linearGradient id="paint4_linear_0_625" x1="31.26" y1="52.7582" x2="41.1727" y2="52.7582" gradientUnits="userSpaceOnUse">
<stop stop-color="#07D2A9"/>
<stop offset="1" stop-color="#03A670"/>
</linearGradient>
<linearGradient id="paint5_linear_0_625" x1="23.8168" y1="44.3463" x2="15.4996" y2="97.6873" gradientUnits="userSpaceOnUse">
<stop stop-color="#ECF0FF"/>
<stop offset="1" stop-color="#D4D8ED"/>
</linearGradient>
<linearGradient id="paint6_linear_0_625" x1="51.8154" y1="76.6413" x2="51.8154" y2="91.656" gradientUnits="userSpaceOnUse">
<stop stop-color="#A6AEC0"/>
<stop offset="1" stop-color="#C7CCE5"/>
</linearGradient>
<linearGradient id="paint7_linear_0_625" x1="27.3274" y1="76.6413" x2="27.3274" y2="91.656" gradientUnits="userSpaceOnUse">
<stop stop-color="#A6AEC0"/>
<stop offset="1" stop-color="#C7CCE5"/>
</linearGradient>
<linearGradient id="paint8_linear_0_625" x1="76.1139" y1="76.6413" x2="76.1139" y2="91.656" gradientUnits="userSpaceOnUse">
<stop stop-color="#A6AEC0"/>
<stop offset="1" stop-color="#C7CCE5"/>
</linearGradient>
<linearGradient id="paint9_linear_0_625" x1="61.2835" y1="11.3777" x2="69.7319" y2="22.2604" gradientUnits="userSpaceOnUse">
<stop stop-color="#00B478"/>
<stop offset="1" stop-color="#05D690"/>
</linearGradient>
<linearGradient id="paint10_linear_0_625" x1="90.358" y1="-1.60343" x2="68.918" y2="8.22956" gradientUnits="userSpaceOnUse">
<stop stop-color="#7CD8FF"/>
<stop offset="1" stop-color="#327FFF"/>
</linearGradient>
<linearGradient id="paint11_linear_0_625" x1="63.6275" y1="8.29277" x2="71.1676" y2="10.5438" gradientUnits="userSpaceOnUse">
<stop stop-color="#0BEBA1"/>
<stop offset="1" stop-color="#00B478"/>
</linearGradient>
<linearGradient id="paint12_linear_0_625" x1="30.0482" y1="26.3374" x2="48.3258" y2="67.7117" gradientUnits="userSpaceOnUse">
<stop stop-color="#94CCFF"/>
<stop offset="1" stop-color="#327FFF"/>
</linearGradient>
<linearGradient id="paint13_linear_0_625" x1="64.4794" y1="51.2106" x2="61.0602" y2="47.9322" gradientUnits="userSpaceOnUse">
<stop stop-color="#E8FCFF" stop-opacity="0.10393"/>
<stop offset="1" stop-color="#61E2FF"/>
</linearGradient>
<linearGradient id="paint14_linear_0_625" x1="25.8436" y1="55.5372" x2="35.121" y2="81.7748" gradientUnits="userSpaceOnUse">
<stop stop-color="#09DF98"/>
<stop offset="1" stop-color="#00A56A"/>
</linearGradient>
<linearGradient id="paint15_linear_0_625" x1="63.9171" y1="59.6004" x2="67.7418" y2="72.1629" gradientUnits="userSpaceOnUse">
<stop stop-color="#73ABFF"/>
<stop offset="1" stop-color="#327FFF"/>
</linearGradient>
<linearGradient id="paint16_linear_0_625" x1="0.349527" y1="17.3368" x2="7.3242" y2="28.9945" gradientUnits="userSpaceOnUse">
<stop stop-color="#FAE38B"/>
<stop offset="1" stop-color="#F7CF6A"/>
</linearGradient>
<linearGradient id="paint17_linear_0_625" x1="19.9374" y1="26.2975" x2="24.7253" y2="34.3255" gradientUnits="userSpaceOnUse">
<stop stop-color="#FAE38B"/>
<stop offset="1" stop-color="#F7CF6A"/>
</linearGradient>
<linearGradient id="paint18_linear_0_625" x1="80.5498" y1="60.9197" x2="88.623" y2="70.5975" gradientUnits="userSpaceOnUse">
<stop stop-color="white" stop-opacity="0.2"/>
<stop offset="0.391105" stop-color="white" stop-opacity="0.7"/>
<stop offset="0.65693" stop-color="white" stop-opacity="0.7"/>
<stop offset="1" stop-color="white" stop-opacity="0.2"/>
</linearGradient>
<linearGradient id="paint19_linear_0_625" x1="41.6283" y1="61.9704" x2="30.0172" y2="66.914" gradientUnits="userSpaceOnUse">
<stop stop-color="white" stop-opacity="0.2"/>
<stop offset="0.391105" stop-color="white" stop-opacity="0.7"/>
<stop offset="0.65693" stop-color="white" stop-opacity="0.7"/>
<stop offset="1" stop-color="white" stop-opacity="0.2"/>
</linearGradient>
</defs>
</svg>
