<svg preserveAspectRatio="none" width="100%" height="100%" overflow="visible" style="display: block;" viewBox="0 0 22.1376 22.2543" fill="none" xmlns="http://www.w3.org/2000/svg">
<g id="&#231;&#188;&#150;&#231;&#187;&#132;">
<path id="Fill 1" fill-rule="evenodd" clip-rule="evenodd" d="M8.6662 0.274034C8.6662 0.274034 4.68704 2.17432 3.95264 3.32183C3.95264 3.32183 4.64413 18.2548 4.73056 20.6049C4.73643 20.7613 4.73952 20.862 4.73952 20.8987C4.73952 21.474 7.65088 22.2543 11.0247 22.2543H11.0312C14.4053 22.2543 17.3132 21.474 17.3132 20.8987C17.3132 20.3264 18.1032 3.32183 18.1032 3.32183C17.8532 2.93014 17.2299 2.45584 16.5137 1.99683C16.5165 1.99683 16.5165 1.99683 16.5137 1.99377C15.1215 1.1033 13.3896 0.274034 13.3896 0.274034C13.3896 0.274034 12.1281 1.39645 10.9725 1.39645C9.817 1.39645 8.6662 0.274034 8.6662 0.274034Z" fill="var(--fill-0, #B08BB4)"/>
<path id="&#232;&#183;&#175;&#229;&#190;&#132;" fill-rule="evenodd" clip-rule="evenodd" d="M8.83005 0.186843L8.95451 1.51398L11.0519 5.68578L11.1655 9.06684L9.87836 12.5915C9.87836 12.5915 -0.449733 15.9524 0.0206979 12.668L0.0658251 12.3674L0.114107 12.0717C0.130685 11.974 0.147726 11.8771 0.165168 11.7811L0.21863 11.4953L0.274119 11.2143L0.331256 10.9382L0.389667 10.6668L0.448975 10.4001L0.538794 10.0087L0.857621 8.65982L0.936109 8.31469L0.985165 8.08984C1.34407 6.4097 2.10506 5.12946 2.86832 4.20889L2.98277 4.07349L3.09696 3.94346C3.11595 3.92224 3.13492 3.90123 3.15386 3.88045L3.26709 3.75841C3.28589 3.73852 3.30464 3.71884 3.32334 3.69938L3.43493 3.58527L3.54506 3.47639L3.65342 3.37274L3.75972 3.27427L3.86365 3.18095L3.96492 3.09275L4.06322 3.00965L4.15826 2.93161L4.24973 2.85861L4.33734 2.7906L4.42079 2.72757L4.53749 2.64229L4.67573 2.5457L4.79191 2.46845L4.90246 2.39874L4.97066 2.34526L5.08187 2.26083L5.16217 2.20173L5.29221 2.10889L5.48429 1.97733L5.58866 1.90823L5.69878 1.83693L5.81479 1.76344L6.00019 1.64912L6.13158 1.57019L6.26937 1.4891L6.41371 1.40585L6.56476 1.32046L6.80419 1.18837L6.97261 1.09765L7.14823 1.00481L7.3312 0.909858L7.52167 0.812808L7.71978 0.713665L7.92568 0.612437L8.24944 0.456705L8.59155 0.296328L8.83005 0.186843Z" fill="var(--fill-0, white)"/>
<path id="&#232;&#183;&#175;&#229;&#190;&#132;_2" fill-rule="evenodd" clip-rule="evenodd" d="M13.1701 0.186843L13.3325 0.258957L13.6455 0.400943L13.9435 0.539603C13.9919 0.562413 14.0398 0.585068 14.087 0.607559L14.3635 0.740473L14.4967 0.80533L14.7007 0.906656L14.9051 1.01019L15.1006 1.11121L15.3775 1.25803L15.5514 1.35274L15.7171 1.44491L15.8746 1.53453L16.0243 1.62157L16.1663 1.70605L16.3008 1.78793L16.428 1.86722L16.5481 1.9439L16.7153 2.054C16.733 2.06591 16.7505 2.0777 16.7677 2.08939L16.9152 2.19158L17.0056 2.25638L17.0901 2.31852L17.2058 2.40669L17.309 2.4888L17.4003 2.56481L17.4805 2.63468L17.528 2.67783L17.5909 2.73738L17.6443 2.7907L17.702 2.85202C17.7062 2.85667 17.7103 2.86119 17.7142 2.8656L17.8168 2.94791L17.9238 3.03648L18.0348 3.13137C18.0536 3.14771 18.0725 3.16432 18.0916 3.18119L18.2077 3.28562L18.3267 3.39646C19.2689 4.28996 20.4394 5.7777 20.9387 7.95023L21.0278 8.35526L21.0895 8.62651L21.2214 9.18682L21.3957 9.92148L21.4664 10.2263L21.5367 10.5375C21.5484 10.5899 21.56 10.6426 21.5715 10.6955L21.6401 11.0165C21.8997 12.2593 22.1171 13.6478 22.1362 15.2038L22.1376 15.439L22.1371 15.55C22.1183 18.2486 11.6045 19.9149 11.6045 19.9149L11.0279 10.5375L11.0279 5.58228L12.9441 2.56297L13.1701 0.186843Z" fill="var(--fill-0, white)"/>
<path id="Fill 35" fill-rule="evenodd" clip-rule="evenodd" d="M13.3499 3.59128L12.8834 2.9898L14.9871 1.08433C14.7972 0.737655 13.1631 0.250979 12.9521 0.0681944C12.9521 0.0681944 12.0352 2.58483 10.917 5.82132L13.3499 3.59128Z" fill="var(--fill-0, #89B1DD)"/>
<path id="Fill 35&#229;&#164;&#135;&#228;&#187;&#189;" fill-rule="evenodd" clip-rule="evenodd" d="M8.65156 3.59128L9.11812 2.9898L7.12143 1.0636C7.31132 0.716921 8.90704 0.182785 9.11812 0C9.11812 0 9.96632 2.58483 11.0844 5.82132L8.65156 3.59128Z" fill="var(--fill-0, #89B1DD)"/>
</g>
</svg>
