<svg preserveAspectRatio="none" width="100%" height="100%" overflow="visible" style="display: block;" viewBox="0 0 24 24" fill="none" xmlns="http://www.w3.org/2000/svg">
<g id="Frame 6">
<rect width="24" height="24" rx="12" fill="url(#paint0_linear_0_398)"/>
<g id="Subtract">
<path d="M14.1328 16.5527C13.8348 17.4453 12.9938 18.0889 12.001 18.0889C11.0083 18.0887 10.1671 17.4452 9.86914 16.5527H14.1328ZM12 5.91113C12.2483 5.91126 12.4492 6.11303 12.4492 6.36133V6.83301C14.7219 7.05854 16.4971 8.97556 16.4971 11.3076V15.0596H17.3965C17.6448 15.0596 17.8465 15.2606 17.8467 15.5088C17.8464 15.757 17.6447 15.959 17.3965 15.959H6.60352C6.35528 15.959 6.15356 15.757 6.15332 15.5088C6.15349 15.2606 6.35524 15.0596 6.60352 15.0596H7.50293V11.3076C7.50294 8.97573 9.27733 7.05877 11.5498 6.83301V6.36133C11.5498 6.11295 11.7516 5.91113 12 5.91113ZM13.7793 10.1553C13.5032 10.1553 13.2793 10.3791 13.2793 10.6553V11.8555C13.2794 12.1315 13.5032 12.3555 13.7793 12.3555C14.0554 12.3555 14.2792 12.1315 14.2793 11.8555V10.6553C14.2793 10.3791 14.0554 10.1553 13.7793 10.1553Z" fill="url(#paint1_linear_0_398)"/>
<path d="M14.1328 16.5527C13.8348 17.4453 12.9938 18.0889 12.001 18.0889C11.0083 18.0887 10.1671 17.4452 9.86914 16.5527H14.1328ZM12 5.91113C12.2483 5.91126 12.4492 6.11303 12.4492 6.36133V6.83301C14.7219 7.05854 16.4971 8.97556 16.4971 11.3076V15.0596H17.3965C17.6448 15.0596 17.8465 15.2606 17.8467 15.5088C17.8464 15.757 17.6447 15.959 17.3965 15.959H6.60352C6.35528 15.959 6.15356 15.757 6.15332 15.5088C6.15349 15.2606 6.35524 15.0596 6.60352 15.0596H7.50293V11.3076C7.50294 8.97573 9.27733 7.05877 11.5498 6.83301V6.36133C11.5498 6.11295 11.7516 5.91113 12 5.91113ZM13.7793 10.1553C13.5032 10.1553 13.2793 10.3791 13.2793 10.6553V11.8555C13.2794 12.1315 13.5032 12.3555 13.7793 12.3555C14.0554 12.3555 14.2792 12.1315 14.2793 11.8555V10.6553C14.2793 10.3791 14.0554 10.1553 13.7793 10.1553Z" fill="var(--fill-1, white)"/>
</g>
</g>
<defs>
<linearGradient id="paint0_linear_0_398" x1="4.60715" y1="5.93799" x2="14.9132" y2="22.674" gradientUnits="userSpaceOnUse">
<stop stop-color="#4B86FF"/>
<stop offset="1" stop-color="#296FFF"/>
</linearGradient>
<linearGradient id="paint1_linear_0_398" x1="8.39794" y1="8.92415" x2="13.7204" y2="17.223" gradientUnits="userSpaceOnUse">
<stop stop-color="#4B86FF"/>
<stop offset="1" stop-color="#296FFF"/>
</linearGradient>
</defs>
</svg>
