<svg preserveAspectRatio="none" width="100%" height="100%" overflow="visible" style="display: block;" viewBox="0 0 20 20" fill="none" xmlns="http://www.w3.org/2000/svg">
<g id="Frame 11">
<path id="Subtract" d="M14.4998 2.8269C15.3281 2.8269 15.9996 3.49858 15.9998 4.3269V15.6706C15.9998 16.8223 14.7556 17.5447 13.7556 16.9734L10.7439 15.2527C10.2828 14.9892 9.71678 14.9892 9.25563 15.2527L6.24391 16.9734C5.24394 17.5447 3.99977 16.8223 3.99977 15.6706V4.3269C3.99989 3.49858 4.67142 2.8269 5.49977 2.8269H14.4998ZM10.0007 5.98803C9.49105 5.98803 9.07709 6.40123 9.07692 6.91088V8.29565H7.69215C7.18267 8.29587 6.76952 8.70902 6.7693 9.2185C6.7693 9.72816 7.18254 10.1411 7.69215 10.1414H9.07692V11.5261C9.07692 12.0358 9.49019 12.4497 9.99977 12.4499C10.5094 12.4498 10.9236 12.0358 10.9236 11.5261V10.1414H12.3084C12.8178 10.141 13.2312 9.72806 13.2312 9.2185C13.231 8.70912 12.8177 8.29604 12.3084 8.29565H10.9236V6.91088C10.9234 6.40149 10.5101 5.98846 10.0007 5.98803Z" fill="var(--fill-0, #296FFF)"/>
</g>
</svg>
