<svg preserveAspectRatio="none" width="100%" height="100%" overflow="visible" style="display: block;" viewBox="0 0 19.3662 21.9961" fill="none" xmlns="http://www.w3.org/2000/svg">
<g id="&#231;&#188;&#150;&#231;&#187;&#132;&#229;&#164;&#135;&#228;&#187;&#189;">
<path id="&#231;&#159;&#169;&#229;&#189;&#162;&#229;&#164;&#135;&#228;&#187;&#189; 2" d="M11.8682 0C12.0671 0 12.2578 0.0790953 12.3984 0.219727L19.1465 6.96777C19.2871 7.10838 19.3662 7.2992 19.3662 7.49805V17.2461C19.366 19.8693 17.2394 21.9961 14.6162 21.9961H4.75C2.12679 21.9961 0.000225733 19.8693 0 17.2461V4.75C0 2.12665 2.12665 0 4.75 0H11.8682ZM4.75 1.5C2.95507 1.5 1.5 2.95507 1.5 4.75V17.2461C1.50023 19.0408 2.95521 20.4961 4.75 20.4961H14.6162C16.411 20.4961 17.866 19.0408 17.8662 17.2461V7.80762L11.5566 1.5H4.75Z" fill="var(--fill-0, #444444)"/>
</g>
</svg>
