<svg preserveAspectRatio="none" width="100%" height="100%" overflow="visible" style="display: block;" viewBox="0 0 23.5 21.5" fill="none" xmlns="http://www.w3.org/2000/svg">
<g id="&#231;&#188;&#150;&#231;&#187;&#132;">
<path id="&#232;&#183;&#175;&#229;&#190;&#132;" d="M13.1548 20.459C12.3845 20.6491 11.579 20.75 10.75 20.75H1.75C1.19772 20.75 0.75 20.3023 0.75 19.75V10.75C0.75 5.22715 5.22715 0.75 10.75 0.75C16.1593 0.75 20.5655 5.04495 20.7444 10.4107" stroke="var(--stroke-0, #444444)" stroke-width="1.5" stroke-linecap="round" stroke-linejoin="round"/>
<path id="&#231;&#159;&#169;&#229;&#189;&#162;&#229;&#164;&#135;&#228;&#187;&#189; 9" fill-rule="evenodd" clip-rule="evenodd" d="M18.75 12.75C16.5409 12.75 14.75 14.5409 14.75 16.75C14.75 18.9591 16.5409 20.75 18.75 20.75H21.75C22.3023 20.75 22.75 20.3023 22.75 19.75V16.75C22.75 14.5409 20.9591 12.75 18.75 12.75Z" stroke="var(--stroke-0, #296FFF)" stroke-width="1.5" stroke-linejoin="round"/>
<rect id="&#231;&#159;&#169;&#229;&#189;&#162;" x="4.75" y="12.5981" width="8" height="1.5" rx="0.75" fill="var(--fill-0, #444444)"/>
<rect id="&#231;&#159;&#169;&#229;&#189;&#162;&#229;&#164;&#135;&#228;&#187;&#189;" x="4.75" y="8.09813" width="12" height="1.5" rx="0.75" fill="var(--fill-0, #444444)"/>
</g>
</svg>
