<svg preserveAspectRatio="none" width="100%" height="100%" overflow="visible" style="display: block;" viewBox="0 0 22.0638 19.3635" fill="none" xmlns="http://www.w3.org/2000/svg">
<g id="&#231;&#188;&#150;&#231;&#187;&#132;">
<path id="&#232;&#183;&#175;&#229;&#190;&#132; 37" d="M21.3138 17.8633C21.728 17.8633 22.0638 18.1991 22.0638 18.6133C22.0638 19.0275 21.728 19.3633 21.3138 19.3633H0.75C0.335786 19.3633 0 19.0275 0 18.6133C0 18.1991 0.335786 17.8633 0.75 17.8633H21.3138Z" fill="var(--fill-0, #444444)"/>
<path id="&#232;&#183;&#175;&#229;&#190;&#132; 37&#229;&#164;&#135;&#228;&#187;&#189; 2" d="M11.7819 0.74796L11.786 2.18769C11.7871 2.6019 11.4523 2.93864 11.0381 2.93981C10.6239 2.94099 10.2871 2.60616 10.286 2.19194L10.2819 0.752216C10.2807 0.338004 10.6155 0.00126628 11.0298 9.09421e-05C11.444 -0.00108439 11.7807 0.333748 11.7819 0.74796Z" fill="var(--fill-0, #444444)"/>
<path id="&#231;&#159;&#169;&#229;&#189;&#162;" d="M11.1198 1.65456C15.9037 1.65456 19.7819 5.53277 19.7819 10.3167V18.6135C19.7818 19.0277 19.446 19.3635 19.0319 19.3635H3.03189C2.61775 19.3635 2.28201 19.0277 2.28189 18.6135V10.3167C2.28189 5.53277 6.1601 1.65456 10.944 1.65456H11.1198ZM10.2116 3.19167C6.60012 3.55847 3.78189 6.60844 3.78189 10.3167V17.8635H18.2819V10.3167C18.2819 6.3612 15.0752 3.15456 11.1198 3.15456H10.944L10.2116 3.19167Z" fill="var(--fill-0, #444444)"/>
<path id="&#232;&#183;&#175;&#229;&#190;&#132; 37&#229;&#164;&#135;&#228;&#187;&#189; 3" d="M15.7079 11.0781V13.9737C15.7079 14.388 15.3722 14.7237 14.9579 14.7237C14.5437 14.7237 14.2079 14.388 14.2079 13.9737V11.0781C14.2079 10.6638 14.5437 10.3281 14.9579 10.3281C15.3722 10.3281 15.7079 10.6638 15.7079 11.0781Z" fill="var(--fill-0, #296FFF)"/>
</g>
</svg>
