<svg preserveAspectRatio="none" width="100%" height="100%" overflow="visible" style="display: block;" viewBox="0 0 17.6569 17.6569" fill="none" xmlns="http://www.w3.org/2000/svg">
<path id="&#229;&#189;&#162;&#231;&#138;&#182;" fill-rule="evenodd" clip-rule="evenodd" d="M8 0C10.2092 0 12.2092 0.895432 13.6569 2.34315C15.1045 3.79088 16 5.79088 16 8C16 9.93914 15.31 11.7171 14.1623 13.1019L17.6569 16.5962L16.5962 17.6569L13.1019 14.1623C11.7171 15.31 9.93914 16 8 16C5.79088 16 3.79088 15.1045 2.34315 13.6569C0.895432 12.2092 0 10.2092 0 8C0 5.79088 0.895432 3.79088 2.34315 2.34315C3.79088 0.895432 5.79088 0 8 0ZM8 1.5C6.25131 1.5 4.61591 2.19172 3.40381 3.4038C2.19172 4.61591 1.5 6.25131 1.5 8C1.5 9.74873 2.19171 11.3841 3.40377 12.5962C4.61594 13.8083 6.25136 14.5 8 14.5C9.74868 14.5 11.3841 13.8083 12.5962 12.5962C13.8083 11.3841 14.5 9.74868 14.5 8C14.5 6.25136 13.8083 4.61594 12.5962 3.40381C11.3841 2.19171 9.74873 1.5 8 1.5Z" fill="var(--fill-0, #111111)"/>
</svg>
