<svg preserveAspectRatio="none" width="100%" height="100%" overflow="visible" style="display: block;" viewBox="0 0 14.714 14.714" fill="none" xmlns="http://www.w3.org/2000/svg">
<path id="&#229;&#189;&#162;&#231;&#138;&#182;" fill-rule="evenodd" clip-rule="evenodd" d="M6.66667 0C8.50763 0 10.1743 0.746193 11.3807 1.95262C12.5871 3.15907 13.3333 4.82573 13.3333 6.66667C13.3333 8.28262 12.7584 9.76427 11.8019 10.9183L14.714 13.8302L13.8302 14.714L10.9183 11.8019C9.76427 12.7584 8.28262 13.3333 6.66667 13.3333C4.82573 13.3333 3.15907 12.5871 1.95262 11.3807C0.746193 10.1743 0 8.50763 0 6.66667C0 4.82573 0.746193 3.15907 1.95262 1.95262C3.15907 0.746193 4.82573 0 6.66667 0ZM6.66667 1.25C5.20943 1.25 3.8466 1.82643 2.83651 2.8365C1.82643 3.8466 1.25 5.20943 1.25 6.66667C1.25 8.12394 1.82643 9.48677 2.83648 10.4968C3.84661 11.5069 5.20946 12.0833 6.66667 12.0833C8.1239 12.0833 9.48675 11.5069 10.4968 10.4969C11.5069 9.48675 12.0833 8.1239 12.0833 6.66667C12.0833 5.20946 11.5069 3.84661 10.4969 2.83651C9.48677 1.82643 8.12394 1.25 6.66667 1.25Z" fill="var(--fill-0, #888888)"/>
</svg>
