<svg preserveAspectRatio="none" width="100%" height="100%" overflow="visible" style="display: block;" viewBox="0 0 172.259 54.0484" fill="none" xmlns="http://www.w3.org/2000/svg">
<g id="Group 28">
<path id="Vector" d="M2.45124e-05 0.25H172.259M2.45124e-05 23.2652H172.259M2.45124e-05 15.5935H172.259M2.45124e-05 11.7576H172.259M2.45124e-05 4.08587H172.259M2.45124e-05 7.92173H172.259M2.45124e-05 19.4293H172.259M2.45124e-05 27.1011H172.259M2.45124e-05 50.1163H172.259M2.45124e-05 42.4445H172.259M2.45124e-05 38.6087H172.259M2.45124e-05 30.9369H172.259M2.45124e-05 34.7728H172.259M2.45124e-05 46.2804H172.259M28.8313 0.489742L28.8313 54.0484M5.8161 0.489743L5.81609 54.0484M13.4878 0.489742L13.4878 54.0484M17.3237 0.489742L17.3237 54.0484M24.9954 0.489742L24.9954 54.0484M21.1596 0.489742L21.1596 54.0484M9.65196 0.489742L9.65196 54.0484M109.384 0.489742L109.384 54.0484M86.3693 0.489743L86.3693 54.0484M94.041 0.489742L94.041 54.0484M97.8769 0.489742L97.8769 54.0484M105.549 0.489742L105.549 54.0484M101.713 0.489742L101.713 54.0484M90.2051 0.489742L90.2051 54.0484M55.6824 0.489742L55.6823 54.0484M32.6672 0.489743L32.6672 54.0484M40.3389 0.489742L40.3389 54.0484M44.1748 0.489742L44.1748 54.0484M51.8465 0.489742L51.8465 54.0484M48.0106 0.489742L48.0106 54.0484M36.503 0.489742L36.503 54.0484M136.236 0.489742V54.0484M113.22 0.489743L113.22 54.0484M120.892 0.489742L120.892 54.0484M124.728 0.489742V54.0484M132.4 0.489742V54.0484M128.564 0.489742V54.0484M117.056 0.489742L117.056 54.0484M82.5334 0.489742L82.5334 54.0484M59.5182 0.489743L59.5182 54.0484M67.1899 0.489742L67.1899 54.0484M71.0258 0.489742L71.0258 54.0484M78.6975 0.489742L78.6975 54.0484M74.8617 0.489742L74.8617 54.0484M63.3541 0.489742L63.3541 54.0484M163.087 0.489742V54.0484M140.071 0.489743V54.0484M147.743 0.489742V54.0484M151.579 0.489742V54.0484M159.251 0.489742V54.0484M155.415 0.489742V54.0484M143.907 0.489742V54.0484" stroke="url(#paint0_linear_0_624)" stroke-opacity="0.8" stroke-width="0.5"/>
</g>
<defs>
<linearGradient id="paint0_linear_0_624" x1="143.188" y1="3.68801" x2="143.188" y2="54.0485" gradientUnits="userSpaceOnUse">
<stop stop-color="white"/>
<stop offset="1" stop-color="white" stop-opacity="0"/>
</linearGradient>
</defs>
</svg>
