<svg preserveAspectRatio="none" width="100%" height="100%" overflow="visible" style="display: block;" viewBox="0 0 23.4033 21.8652" fill="none" xmlns="http://www.w3.org/2000/svg">
<g id="&#231;&#188;&#150;&#231;&#187;&#132;">
<path id="&#232;&#183;&#175;&#229;&#190;&#132;&#229;&#164;&#135;&#228;&#187;&#189; 10 (Stroke)" d="M21.9033 7.48633C21.9031 4.12155 19.4136 1.5 16.4922 1.5C14.8656 1.50005 13.329 2.31568 12.3047 3.7002C12.1633 3.8913 11.9398 4.00481 11.7021 4.00488C11.4643 4.00484 11.24 3.89146 11.0986 3.7002C10.075 2.3156 8.53897 1.5 6.91113 1.5C3.98979 1.5002 1.50022 4.12166 1.5 7.48633C1.5 9.46309 2.37136 10.8531 3.16797 12.1035C4.26637 13.8266 6.23277 15.8061 8.00098 17.4072C9.75462 18.9952 11.254 20.158 11.3691 20.2471C11.4763 20.3298 11.5923 20.3652 11.7012 20.3652C11.8109 20.3652 11.9274 20.3298 12.0342 20.2471H12.0352C12.1512 20.1575 13.6493 18.9946 15.4023 17.4072C17.1705 15.8061 19.1363 13.8266 20.2344 12.1035C21.0314 10.8531 21.9033 9.46316 21.9033 7.48633ZM23.4033 7.48633C23.4033 9.94178 22.2953 11.6624 21.5 12.9102C20.2859 14.8152 18.1883 16.9075 16.4092 18.5186C14.6155 20.1428 13.0828 21.333 12.9512 21.4346C12.5842 21.7183 12.1459 21.8652 11.7012 21.8652C11.2568 21.8652 10.8183 21.7174 10.4512 21.4336C10.318 21.3307 8.7865 20.1416 6.99414 18.5186C5.21509 16.9076 3.11769 14.8151 1.90332 12.9102V12.9092C1.10842 11.6614 0 9.9415 0 7.48633C0.000218595 3.42201 3.0382 0.000197437 6.91113 0C8.74289 0 10.4453 0.786226 11.7021 2.09668C12.9593 0.786633 14.6613 4.25227e-05 16.4922 0C20.3653 0 23.4031 3.42193 23.4033 7.48633Z" fill="var(--fill-0, #444444)"/>
<path id="&#232;&#183;&#175;&#229;&#190;&#132; 23 (Stroke)" d="M10.5345 6.65356C10.8247 6.6608 11.0842 6.83527 11.2015 7.10082L12.973 11.1135L13.7073 10.0325L13.764 9.95922C13.9054 9.79823 14.1102 9.70434 14.3275 9.70434H16.7005C17.1146 9.70444 17.4505 10.0402 17.4505 10.4543C17.4504 10.8684 17.1146 11.2042 16.7005 11.2043H14.7239L13.4534 13.0764C13.3003 13.3016 13.0372 13.4261 12.7659 13.4016C12.4944 13.377 12.2569 13.2067 12.1468 12.9573L10.471 9.16137L9.65363 10.7913C9.52633 11.0444 9.26703 11.2042 8.98371 11.2043H6.70344C6.28928 11.2043 5.95354 10.8685 5.95344 10.4543C5.95344 10.0401 6.28922 9.70434 6.70344 9.70434H8.52082L9.84601 7.06664L9.9007 6.97485C10.0433 6.77015 10.2804 6.64722 10.5345 6.65356Z" fill="var(--fill-0, #296FFF)"/>
</g>
</svg>
