<svg preserveAspectRatio="none" width="100%" height="100%" overflow="visible" style="display: block;" viewBox="0 0 10.0506 15.8428" fill="none" xmlns="http://www.w3.org/2000/svg">
<g id="&#231;&#188;&#150;&#231;&#187;&#132; 2">
<g id="&#231;&#188;&#150;&#231;&#187;&#132;">
<path id="&#231;&#159;&#169;&#229;&#189;&#162;" fill-rule="evenodd" clip-rule="evenodd" d="M0.361328 3.9626C0.66445 1.64401 2.69167 0.000107527 5.02999 0.000107527C7.42423 0.000107527 9.48183 1.72179 9.7455 4.10147C10.003 6.42503 10.1678 9.09655 9.75973 10.2747C8.96398 12.5723 8.1597 11.6535 4.89452 11.7246C2.28217 11.7776 1.13004 12.9372 0.292605 10.2747C-0.13717 8.90833 0.0638102 6.23832 0.361328 3.9626Z" fill="var(--fill-0, #4B5E80)"/>
<g id="&#231;&#188;&#150;&#231;&#187;&#132;_2">
<path id="Clip 2" fill-rule="evenodd" clip-rule="evenodd" d="M3.15475 10.0507V14.1245C3.15475 14.1245 3.73553 15.8026 4.94432 15.8419V15.8419C6.15001 15.8848 6.79356 14.1459 6.79356 14.1459V14.1459V10.0507H3.15475Z" fill="var(--fill-0, #FDB4B1)"/>
<mask id="mask0_0_205" style="mask-type:luminance" maskUnits="userSpaceOnUse" x="3" y="10" width="4" height="6">
<path id="Clip 2_2" fill-rule="evenodd" clip-rule="evenodd" d="M3.15475 10.0507V14.1245C3.15475 14.1245 3.73553 15.8026 4.94432 15.8419V15.8419C6.15001 15.8848 6.79356 14.1459 6.79356 14.1459V14.1459V10.0507H3.15475Z" fill="var(--fill-0, white)"/>
</mask>
<g mask="url(#mask0_0_205)">
<path id="Fill 1" fill-rule="evenodd" clip-rule="evenodd" d="M3.15475 10.0507V14.1245C3.15475 14.1245 3.73553 15.8026 4.94432 15.8419V15.8419C6.15001 15.8848 6.79356 14.1459 6.79356 14.1459V14.1459V10.0507H3.15475Z" fill="url(#paint0_linear_0_205)"/>
</g>
</g>
<g id="&#231;&#188;&#150;&#231;&#187;&#132;_3">
<path id="Fill 3" fill-rule="evenodd" clip-rule="evenodd" d="M6.79328 11.5608V14.1459C6.79328 14.1459 6.15004 15.8846 4.94436 15.842C3.73556 15.8024 3.15447 14.1246 3.15447 14.1246V13.0467C3.86607 13.2081 5.54098 13.3451 6.79328 11.5608" fill="var(--fill-0, #FFDCC4)"/>
<path id="Fill 5" fill-rule="evenodd" clip-rule="evenodd" d="M6.79328 10.0505V10.3793C5.66839 11.2319 4.11156 11.1802 3.15447 11.034V10.0505H6.79328Z" fill="var(--fill-0, #FFD0AF)"/>
</g>
<path id="Fill 9" fill-rule="evenodd" clip-rule="evenodd" d="M0.144997 6.08409C0.138712 6.1121 0.135569 6.14316 0.135569 6.17392V6.17392C0.0873855 6.90927 1.3042 7.74876 1.51335 7.74876V7.74876C1.51963 7.74876 1.52627 7.74876 1.52941 7.74602V7.74602C1.66139 7.69578 1.46516 6.55575 1.4072 6.247V6.247C1.40092 6.19645 1.39429 6.16844 1.39429 6.16844V6.16844C1.39429 6.16844 1.21726 6.02806 0.995197 5.91266V5.91266C0.839124 5.83075 0.659307 5.76011 0.503931 5.76011V5.76011C0.335288 5.76011 0.195275 5.84293 0.144997 6.08409" fill="url(#paint1_linear_0_205)"/>
<path id="Fill 11" fill-rule="evenodd" clip-rule="evenodd" d="M9.06232 5.89591C8.9692 5.94098 8.88584 5.99122 8.81784 6.03628V6.03628C8.70553 6.10936 8.6316 6.16844 8.6316 6.16844V6.16844C8.6316 6.16844 8.34561 7.68726 8.49663 7.74602V7.74602C8.50639 7.74876 8.52209 7.74876 8.54127 7.74602V7.74602C8.78296 7.69274 9.68625 7.05817 9.86307 6.42117V6.42117C9.89551 6.30881 9.90179 6.19371 9.87912 6.08409V6.08409C9.8289 5.84324 9.68904 5.76011 9.52024 5.76011V5.76011C9.37585 5.76011 9.21054 5.82101 9.06232 5.89591" fill="url(#paint2_linear_0_205)"/>
<path id="Fill 7" fill-rule="evenodd" clip-rule="evenodd" d="M0.939562 4.9444C0.97399 5.31237 0.861051 5.7165 0.923311 6.05739C0.948787 6.21207 0.980115 6.36889 1.01833 6.52357C1.11989 6.98945 1.25621 7.45289 1.4342 7.89349C2.03425 9.37577 3.09734 10.5804 4.98288 10.5551C6.86807 10.5804 7.93494 9.37577 8.53431 7.89075C8.74121 7.37981 8.89028 6.83507 9.00113 6.29611C9.01697 6.20933 9.03315 6.12499 9.04864 6.04064C9.10284 5.74232 9.14496 5.42584 9.1775 5.10496C9.20937 4.79067 6.87413 1.68011 6.64282 1.68011C5.85516 1.68011 5.13789 1.68011 4.49102 1.68011C3.88082 1.68011 2.32031 2.87324 1.4342 3.6146C1.10866 3.88696 0.914774 4.67945 0.939562 4.9444Z" fill="url(#paint3_linear_0_205)"/>
</g>
<path id="Fill 1_2" fill-rule="evenodd" clip-rule="evenodd" d="M4.87399 0.949673C3.25374 0.959199 1.80386 1.57665 1.45113 2.28223C0.509247 3.34967 0.654148 6.11779 0.654148 6.11779C0.654148 6.11779 1.77915 5.70828 2.50864 4.95745C3.23812 4.20662 3.14925 3.53373 3.14925 3.53373C3.14925 3.53373 4.18422 5.08181 6.72249 5.14701C6.72249 5.14701 5.56129 4.78598 5.08719 4.25308C5.08719 4.25308 7.62379 5.76011 9.25501 5.61621C9.25501 5.61621 9.43239 4.28351 8.99571 3.28038C8.61528 2.40647 7.85636 1.60995 6.80997 1.25304C6.20023 1.04494 5.56258 0.953245 4.94733 0.949673H4.87399Z" fill="url(#paint4_linear_0_205)"/>
</g>
<defs>
<linearGradient id="paint0_linear_0_205" x1="4.36791" y1="11.5152" x2="4.36791" y2="13.4452" gradientUnits="userSpaceOnUse">
<stop stop-color="#FFD8BC"/>
<stop offset="1" stop-color="#FFE7D6"/>
</linearGradient>
<linearGradient id="paint1_linear_0_205" x1="-0.049634" y1="6.82049" x2="0.851431" y2="7.10916" gradientUnits="userSpaceOnUse">
<stop stop-color="#FFE1CC"/>
<stop offset="1" stop-color="#FFBE91"/>
</linearGradient>
<linearGradient id="paint2_linear_0_205" x1="9.01149" y1="7.61853" x2="10.3129" y2="7.3418" gradientUnits="userSpaceOnUse">
<stop stop-color="#FFBE91"/>
<stop offset="1" stop-color="#FFE1CC"/>
</linearGradient>
<linearGradient id="paint3_linear_0_205" x1="3.3155" y1="5.90671" x2="3.3155" y2="9.01753" gradientUnits="userSpaceOnUse">
<stop stop-color="#FFD4B6"/>
<stop offset="1" stop-color="#FFE7D6"/>
</linearGradient>
<linearGradient id="paint4_linear_0_205" x1="2.32754" y1="3.56747" x2="2.83194" y2="8.7038" gradientUnits="userSpaceOnUse">
<stop stop-color="#4B5E80"/>
<stop offset="1" stop-color="#8297B7"/>
</linearGradient>
</defs>
</svg>
