<svg preserveAspectRatio="none" width="100%" height="100%" overflow="visible" style="display: block;" viewBox="0 0 28 28" fill="none" xmlns="http://www.w3.org/2000/svg">
<g id="Group 167">
<g id="Ellipse 4" filter="url(#filter0_i_0_696)">
<circle cx="14" cy="14" r="14" fill="url(#paint0_linear_0_696)"/>
</g>
<path id="Subtract" d="M18.5 7.00738C19.3284 7.00738 19.9999 7.67905 20 8.50738V19.8511C20 21.0028 18.7558 21.7252 17.7559 21.1539L14.7441 19.4332C14.283 19.1696 13.717 19.1696 13.2559 19.4332L10.2441 21.1539C9.24417 21.7252 8 21.0028 8 19.8511V8.50738C8.00012 7.67906 8.67165 7.00738 9.5 7.00738H18.5ZM14.001 10.1685C13.4913 10.1685 13.0773 10.5817 13.0771 11.0914V12.4761H11.6924C11.1829 12.4764 10.7697 12.8895 10.7695 13.399C10.7695 13.9086 11.1828 14.3216 11.6924 14.3218H13.0771V15.7066C13.0771 16.2162 13.4904 16.6302 14 16.6304C14.5097 16.6303 14.9238 16.2163 14.9238 15.7066V14.3218H16.3086C16.8181 14.3214 17.2314 13.9085 17.2314 13.399C17.2312 12.8896 16.8179 12.4765 16.3086 12.4761H14.9238V11.0914C14.9237 10.582 14.5103 10.1689 14.001 10.1685Z" fill="var(--fill-0, white)"/>
</g>
<defs>
<filter id="filter0_i_0_696" x="0" y="0" width="28" height="35.7" filterUnits="userSpaceOnUse" color-interpolation-filters="sRGB">
<feFlood flood-opacity="0" result="BackgroundImageFix"/>
<feBlend mode="normal" in="SourceGraphic" in2="BackgroundImageFix" result="shape"/>
<feColorMatrix in="SourceAlpha" type="matrix" values="0 0 0 0 0 0 0 0 0 0 0 0 0 0 0 0 0 0 127 0" result="hardAlpha"/>
<feOffset dy="8"/>
<feGaussianBlur stdDeviation="3.85"/>
<feComposite in2="hardAlpha" operator="arithmetic" k2="-1" k3="1"/>
<feColorMatrix type="matrix" values="0 0 0 0 1 0 0 0 0 1 0 0 0 0 1 0 0 0 0.25 0"/>
<feBlend mode="normal" in2="shape" result="effect1_innerShadow_0_696"/>
</filter>
<linearGradient id="paint0_linear_0_696" x1="14" y1="0" x2="14" y2="28" gradientUnits="userSpaceOnUse">
<stop stop-color="#4F90FF"/>
<stop offset="1" stop-color="#4F90FF"/>
</linearGradient>
</defs>
</svg>
